<svg width="36" height="28" viewBox="0 0 36 28" fill="none" xmlns="http://www.w3.org/2000/svg">
<path d="M29.7516 2.26907C27.4781 1.20904 25.0471 0.438662 22.5056 0C22.1935 0.562349 21.8289 1.31872 21.5774 1.92041C18.8758 1.51553 16.199 1.51553 13.547 1.92041C13.2956 1.31872 12.9227 0.562349 12.6078 0C10.0636 0.438662 7.62982 1.21187 5.35632 2.27468C0.770636 9.18019 -0.472468 15.9142 0.149085 22.5525C3.19055 24.816 6.1381 26.1909 9.0359 27.0906C9.75138 26.1093 10.3895 25.0662 10.9392 23.9668C9.89226 23.5704 8.88949 23.0812 7.942 22.5132C8.19336 22.3276 8.43924 22.1336 8.67679 21.934C14.4558 24.6276 20.7349 24.6276 26.4449 21.934C26.6853 22.1336 26.9311 22.3276 27.1797 22.5132C26.2294 23.0839 25.2239 23.5732 24.1769 23.9697C24.7267 25.0662 25.362 26.1122 26.0803 27.0934C28.9809 26.1937 31.9311 24.8188 34.9726 22.5525C35.7019 14.857 33.7268 8.18484 29.7516 2.26907ZM11.7265 18.47C9.99173 18.47 8.56904 16.8561 8.56904 14.8907C8.56904 12.9253 9.96135 11.3086 11.7265 11.3086C13.4918 11.3086 14.9144 12.9225 14.884 14.8907C14.8868 16.8561 13.4918 18.47 11.7265 18.47ZM23.3952 18.47C21.6604 18.47 20.2377 16.8561 20.2377 14.8907C20.2377 12.9253 21.6299 11.3086 23.3952 11.3086C25.1604 11.3086 26.583 12.9225 26.5527 14.8907C26.5527 16.8561 25.1604 18.47 23.3952 18.47Z" fill="#C4C4C4"/>
</svg>
