<svg width="21" height="22" viewBox="0 0 21 22" fill="none" xmlns="http://www.w3.org/2000/svg">
<path fill-rule="evenodd" clip-rule="evenodd" d="M16.3724 3.05311C16.3724 1.90067 17.3094 0.966942 18.4659 0.966942C19.6223 0.966942 20.5593 1.90067 20.5593 3.05311C20.5593 4.20561 19.6223 5.13931 18.4659 5.13931C17.3094 5.13931 16.3724 4.20561 16.3724 3.05311ZM0.129995 12.3525C0.129995 7.43492 4.1619 3.417 9.09659 3.417C14.0313 3.417 18.0657 7.43492 18.0657 12.3525C18.0657 17.27 14.0313 21.2879 9.09659 21.2879C4.1619 21.2879 0.129995 17.27 0.129995 12.3525ZM15.0718 12.3525C15.0718 9.04704 12.4135 6.40049 9.09659 6.40049C5.77963 6.40049 3.12385 9.04704 3.12385 12.3525C3.12385 15.6579 5.77963 18.3044 9.09659 18.3044C12.4135 18.3044 15.0718 15.6579 15.0718 12.3525Z" fill="black"/>
</svg>
