<svg width="37" height="35" viewBox="0 0 37 35" fill="none" xmlns="http://www.w3.org/2000/svg">
<path d="M0 9C0 4.02944 4.02944 0 9 0H26C30.9706 0 35 4.02944 35 9V26C35 30.9706 30.9706 35 26 35H9C4.02944 35 0 30.9706 0 26V9Z" fill="#C4C4C4"/>
<path fill-rule="evenodd" clip-rule="evenodd" d="M26.3724 8.05311C26.3724 6.90067 27.3094 5.96694 28.4659 5.96694C29.6223 5.96694 30.5593 6.90067 30.5593 8.05311C30.5593 9.20561 29.6223 10.1393 28.4659 10.1393C27.3094 10.1393 26.3724 9.20561 26.3724 8.05311ZM10.13 17.3525C10.13 12.4349 14.1619 8.417 19.0966 8.417C24.0313 8.417 28.0657 12.4349 28.0657 17.3525C28.0657 22.27 24.0313 26.2879 19.0966 26.2879C14.1619 26.2879 10.13 22.27 10.13 17.3525ZM25.0718 17.3525C25.0718 14.047 22.4135 11.4005 19.0966 11.4005C15.7796 11.4005 13.1238 14.047 13.1238 17.3525C13.1238 20.6579 15.7796 23.3044 19.0966 23.3044C22.4135 23.3044 25.0718 20.6579 25.0718 17.3525Z" fill="black"/>
</svg>
