<svg width="50" height="60" viewBox="0 0 50 60" fill="none" xmlns="http://www.w3.org/2000/svg">
<path fill-rule="evenodd" clip-rule="evenodd" d="M33.6766 0C43.4391 0 49.0399 4.83235 49.0399 13.2508V55.0871C49.0399 56.8427 48.1362 58.4228 46.6166 59.3064C45.1027 60.1928 43.278 60.2101 41.7468 59.3467L24.5933 49.6561L7.28141 59.3668C6.5331 59.787 5.71284 60 4.8897 60C4.04066 60 3.19161 59.7726 2.42028 59.3179C0.903513 58.4343 -0.000213623 56.8542 -0.000213623 55.1015V12.7241C-0.000213623 4.63664 5.60347 0 15.3747 0H33.6766ZM33.6766 4.31717H15.3747C8.03835 4.31717 4.31695 7.14347 4.31695 12.7241V55.1015C4.31695 55.372 4.47237 55.5188 4.60189 55.5936C4.7314 55.6742 4.93575 55.7318 5.17175 55.5994L23.5399 45.2957C24.1961 44.9302 24.9991 44.9273 25.6582 45.2986L43.868 55.585C44.1069 55.7231 44.3112 55.6598 44.4407 55.5821C44.5702 55.5044 44.7228 55.3576 44.7228 55.0871L44.7217 12.9229C44.6999 10.4457 44.2207 4.31717 33.6766 4.31717ZM34.9395 19.3654C36.131 19.3654 37.0981 20.3324 37.0981 21.524C37.0981 22.7155 36.131 23.6825 34.9395 23.6825H13.8775C12.6859 23.6825 11.7189 22.7155 11.7189 21.524C11.7189 20.3324 12.6859 19.3654 13.8775 19.3654H34.9395Z" fill="white"/>
</svg>
