<svg width="36" height="29" viewBox="0 0 36 29" fill="none" xmlns="http://www.w3.org/2000/svg">
<path d="M35.122 3.36634C33.8304 3.93753 32.4415 4.32358 30.9842 4.4975C32.4716 3.60847 33.6136 2.20141 34.1516 0.525137C32.7596 1.34829 31.218 1.94535 29.576 2.26719C28.2623 0.872055 26.3896 0 24.3172 0C20.3377 0 17.1122 3.21452 17.1122 7.17997C17.1122 7.74294 17.1754 8.29112 17.2987 8.8163C11.3102 8.51725 6.0011 5.65785 2.44729 1.31423C1.82704 2.37421 1.47175 3.60744 1.47175 4.92354C1.47175 7.41496 2.74326 9.61231 4.67717 10.9004C3.4961 10.8636 2.38495 10.5405 1.41346 10.0023C1.41208 10.0325 1.41207 10.0624 1.41207 10.0924C1.41207 13.5719 3.89605 16.4733 7.19191 17.1334C6.58782 17.2975 5.95142 17.3843 5.29422 17.3843C4.82947 17.3843 4.37886 17.3405 3.93816 17.2563C4.85567 20.1087 7.51613 22.1849 10.6696 22.243C8.20165 24.1692 5.09535 25.3165 1.71933 25.3165C1.13814 25.3165 0.564136 25.2824 0 25.2164C3.19001 27.2536 6.97686 28.4419 11.0463 28.4419C24.2991 28.4419 31.5455 17.5013 31.5455 8.01214C31.5455 7.70098 31.5383 7.39194 31.5253 7.08402C32.9324 6.07086 34.1538 4.80659 35.1204 3.3664" fill="#C4C4C4"/>
</svg>
